<?xml version="1.0" encoding="UTF-8" standalone="no"?>
<!DOCTYPE svg PUBLIC "-//W3C//DTD SVG 1.1//EN"
 "http://www.w3.org/Graphics/SVG/1.1/DTD/svg11.dtd">
<!-- Generated by graphviz version 2.36.0 (20140111.2315)
 -->
<!-- Title: models_diagram Pages: 1 -->
<svg width="2244pt" height="586pt"
 viewBox="0.00 0.00 2244.00 586.00" xmlns="http://www.w3.org/2000/svg" xmlns:xlink="http://www.w3.org/1999/xlink">
<g id="graph0" class="graph" transform="scale(1 1) rotate(0) translate(4 582)">
<title>models_diagram</title>
<polygon fill="none" stroke="none" points="-4,4 -4,-582 2240,-582 2240,4 -4,4"/>
<!-- _diagram_info -->
<g id="node1" class="node"><title>_diagram_info</title>
<text text-anchor="start" x="8" y="-563.6" font-family="Times,serif" font-size="13.00">Models diagram</text>
<text text-anchor="start" x="8" y="-549.6" font-family="Times,serif" font-size="13.00">Date: Jan 28 2016 &#45; 23:25</text>
<text text-anchor="start" x="8" y="-535.6" font-family="Times,serif" font-size="13.00">Migration version: 104</text>
<text text-anchor="start" x="8" y="-521.6" font-family="Times,serif" font-size="13.00">Generated by RailRoady 1.4.2</text>
<text text-anchor="start" x="8" y="-507.6" font-family="Times,serif" font-size="13.00">http://railroady.prestonlee.com</text>
</g>
<!-- ConfigManager -->
<g id="node2" class="node"><title>ConfigManager</title>
<polygon fill="none" stroke="black" stroke-dasharray="1,5" points="303.25,-557 200.75,-557 200.75,-521 303.25,-521 303.25,-557"/>
<text text-anchor="middle" x="252" y="-535.3" font-family="Times,serif" font-size="14.00">ConfigManager</text>
</g>
<!-- NotificationMailer -->
<g id="node3" class="node"><title>NotificationMailer</title>
<polygon fill="none" stroke="black" points="440.25,-557 321.75,-557 321.75,-521 440.25,-521 440.25,-557"/>
<text text-anchor="middle" x="381" y="-535.3" font-family="Times,serif" font-size="14.00">NotificationMailer</text>
</g>
<!-- Redirect -->
<g id="node4" class="node"><title>Redirect</title>
<ellipse fill="none" stroke="black" cx="620" cy="-444" rx="39.9464" ry="18"/>
<text text-anchor="middle" x="620" y="-440.3" font-family="Times,serif" font-size="14.00">Redirect</text>
</g>
<!-- Content -->
<g id="node9" class="node"><title>Content</title>
<ellipse fill="none" stroke="black" cx="620" cy="-356" rx="38.0212" ry="18"/>
<text text-anchor="middle" x="620" y="-352.3" font-family="Times,serif" font-size="14.00">Content</text>
</g>
<!-- Redirect&#45;&gt;Content -->
<g id="edge2" class="edge"><title>Redirect&#45;&gt;Content</title>
<path fill="none" stroke="#85ccb9" d="M620,-415.342C620,-405.378 620,-394.149 620,-384.223"/>
<polygon fill="#85ccb9" stroke="#85ccb9" points="620,-415.597 615.5,-425.597 620,-420.597 620,-425.597 620,-425.597 620,-425.597 620,-420.597 624.5,-425.597 620,-415.597 620,-415.597"/>
<polygon fill="#85ccb9" stroke="#85ccb9" points="620,-384.084 624.5,-374.084 620,-379.084 620,-374.084 620,-374.084 620,-374.084 620,-379.084 615.5,-374.084 620,-384.084 620,-384.084"/>
</g>
<!-- Redirection -->
<g id="node32" class="node"><title>Redirection</title>
<ellipse fill="none" stroke="black" cx="508" cy="-18" rx="51.4931" ry="18"/>
<text text-anchor="middle" x="508" y="-14.3" font-family="Times,serif" font-size="14.00">Redirection</text>
</g>
<!-- Redirect&#45;&gt;Redirection -->
<g id="edge1" class="edge"><title>Redirect&#45;&gt;Redirection</title>
<path fill="none" stroke="#7530df" d="M594.47,-422.98C557.884,-393.952 488.899,-337.953 434,-286 394.951,-249.046 380.332,-243.056 351,-198 327.852,-162.443 322.388,-151.59 314,-110 310.837,-94.3158 304.582,-86.9343 314,-74 350.188,-24.3028 387.59,-51.8068 447,-36 451.064,-34.9188 455.275,-33.7811 459.499,-32.6281"/>
<ellipse fill="none" stroke="#7530df" cx="597.777" cy="-425.597" rx="4.00002" ry="4.00002"/>
<polygon fill="#7530df" stroke="#7530df" points="459.672,-32.5805 470.507,-34.2678 464.493,-31.2547 469.314,-29.9289 469.314,-29.9289 469.314,-29.9289 464.493,-31.2547 468.121,-25.59 459.672,-32.5805 459.672,-32.5805"/>
</g>
<!-- PostType -->
<g id="node5" class="node"><title>PostType</title>
<ellipse fill="none" stroke="black" cx="610" cy="-539" rx="44.2946" ry="18"/>
<text text-anchor="middle" x="610" y="-535.3" font-family="Times,serif" font-size="14.00">PostType</text>
</g>
<!-- PageCache -->
<g id="node6" class="node"><title>PageCache</title>
<polygon fill="none" stroke="black" points="1014.25,-557 937.75,-557 937.75,-521 1014.25,-521 1014.25,-557"/>
<text text-anchor="middle" x="976" y="-535.3" font-family="Times,serif" font-size="14.00">PageCache</text>
</g>
<!-- Article -->
<g id="node7" class="node"><title>Article</title>
<ellipse fill="none" stroke="black" cx="852" cy="-180" rx="35.1455" ry="18"/>
<text text-anchor="middle" x="852" y="-176.3" font-family="Times,serif" font-size="14.00">Article</text>
</g>
<!-- Article&#45;&gt;Redirect -->
<g id="edge6" class="edge"><title>Article&#45;&gt;Redirect</title>
<path fill="none" stroke="#aae720" d="M844.246,-207.593C834.618,-237.321 815.971,-285.773 788,-320 750.254,-366.188 691.365,-403.938 654.275,-424.936"/>
<polygon fill="#aae720" stroke="#aae720" points="844.288,-207.456 851.57,-199.256 845.782,-202.684 847.275,-197.912 847.275,-197.912 847.275,-197.912 845.782,-202.684 842.981,-196.568 844.288,-207.456 844.288,-207.456"/>
<polygon fill="#aae720" stroke="#aae720" points="654.078,-425.046 643.152,-425.977 649.709,-427.477 645.341,-429.909 645.341,-429.909 645.341,-429.909 649.709,-427.477 647.529,-433.841 654.078,-425.046 654.078,-425.046"/>
</g>
<!-- Category -->
<g id="node11" class="node"><title>Category</title>
<ellipse fill="none" stroke="black" cx="376" cy="-92" rx="42.3456" ry="18"/>
<text text-anchor="middle" x="376" y="-88.3" font-family="Times,serif" font-size="14.00">Category</text>
</g>
<!-- Article&#45;&gt;Category -->
<g id="edge13" class="edge"><title>Article&#45;&gt;Category</title>
<path fill="none" stroke="#c02b81" d="M808.388,-173.071C762.043,-166.605 686.678,-155.617 622,-144 552.263,-131.474 471.976,-114.31 422.608,-103.437"/>
<polygon fill="#c02b81" stroke="#c02b81" points="808.483,-173.084 817.769,-178.916 813.435,-173.771 818.388,-174.458 818.388,-174.458 818.388,-174.458 813.435,-173.771 819.006,-170.001 808.483,-173.084 808.483,-173.084"/>
<polygon fill="#c02b81" stroke="#c02b81" points="422.322,-103.374 413.529,-96.822 417.44,-102.295 412.558,-101.216 412.558,-101.216 412.558,-101.216 417.44,-102.295 411.587,-105.61 422.322,-103.374 422.322,-103.374"/>
</g>
<!-- Tag -->
<g id="node12" class="node"><title>Tag</title>
<ellipse fill="none" stroke="black" cx="1049" cy="-92" rx="27" ry="18"/>
<text text-anchor="middle" x="1049" y="-88.3" font-family="Times,serif" font-size="14.00">Tag</text>
</g>
<!-- Article&#45;&gt;Tag -->
<g id="edge18" class="edge"><title>Article&#45;&gt;Tag</title>
<path fill="none" stroke="#14f593" d="M883.455,-160.943C908.907,-146.337 940.605,-128.16 941,-128 971.179,-115.795 981.304,-120.841 1012,-110 1014.11,-109.254 1016.27,-108.432 1018.43,-107.565"/>
<polygon fill="#14f593" stroke="#14f593" points="883.447,-160.947 872.534,-162.022 879.11,-163.436 874.774,-165.925 874.774,-165.925 874.774,-165.925 879.11,-163.436 877.014,-169.828 883.447,-160.947 883.447,-160.947"/>
<polygon fill="#14f593" stroke="#14f593" points="1018.56,-107.506 1029.53,-107.7 1023.16,-105.535 1027.75,-103.564 1027.75,-103.564 1027.75,-103.564 1023.16,-105.535 1025.98,-99.4284 1018.56,-107.506 1018.56,-107.506"/>
</g>
<!-- Trackback -->
<g id="node16" class="node"><title>Trackback</title>
<ellipse fill="none" stroke="black" cx="738" cy="-92" rx="48.1437" ry="18"/>
<text text-anchor="middle" x="738" y="-88.3" font-family="Times,serif" font-size="14.00">Trackback</text>
</g>
<!-- Article&#45;&gt;Trackback -->
<g id="edge9" class="edge"><title>Article&#45;&gt;Trackback</title>
<path fill="none" stroke="#bef87b" d="M809.582,-175.075C769.478,-170.382 713.489,-160.948 700,-144 692.438,-134.499 698.385,-123.75 707.63,-114.578"/>
<ellipse fill="none" stroke="#bef87b" cx="813.65" cy="-175.532" rx="4.00001" ry="4.00001"/>
<polygon fill="#bef87b" stroke="#bef87b" points="707.677,-114.537 718.152,-111.292 711.425,-111.228 715.174,-107.919 715.174,-107.919 715.174,-107.919 711.425,-111.228 712.196,-104.545 707.677,-114.537 707.677,-114.537"/>
</g>
<!-- Article&#45;&gt;Trackback -->
<g id="edge16" class="edge"><title>Article&#45;&gt;Trackback</title>
<path fill="none" stroke="#15f165" d="M810.295,-173.516C775.905,-168.038 731.042,-158.352 720,-144 714.221,-136.489 715.797,-126.972 719.827,-118.199"/>
<ellipse fill="none" stroke="#15f165" cx="814.388" cy="-174.145" rx="4.00001" ry="4.00001"/>
<polygon fill="#15f165" stroke="#15f165" points="719.84,-118.175 728.64,-111.632 722.275,-113.808 724.71,-109.441 724.71,-109.441 724.71,-109.441 722.275,-113.808 720.779,-107.25 719.84,-118.175 719.84,-118.175"/>
<text text-anchor="middle" x="779" y="-132.3" font-family="Times,serif" font-size="14.00">published_trackbacks</text>
</g>
<!-- Ping -->
<g id="node20" class="node"><title>Ping</title>
<ellipse fill="none" stroke="black" cx="871" cy="-92" rx="27" ry="18"/>
<text text-anchor="middle" x="871" y="-88.3" font-family="Times,serif" font-size="14.00">Ping</text>
</g>
<!-- Article&#45;&gt;Ping -->
<g id="edge8" class="edge"><title>Article&#45;&gt;Ping</title>
<path fill="none" stroke="#0c25f6" d="M860.273,-154.27C861.273,-150.842 862.216,-147.349 863,-144 864.798,-136.321 866.306,-127.895 867.51,-120.143"/>
<ellipse fill="none" stroke="#0c25f6" cx="859.059" cy="-158.227" rx="4.00001" ry="4.00001"/>
<polygon fill="#0c25f6" stroke="#0c25f6" points="867.527,-120.019 873.415,-110.768 868.245,-115.071 868.962,-110.123 868.962,-110.123 868.962,-110.123 868.245,-115.071 864.508,-109.477 867.527,-120.019 867.527,-120.019"/>
</g>
<!-- Trigger -->
<g id="node24" class="node"><title>Trigger</title>
<ellipse fill="none" stroke="black" cx="1299" cy="-18" rx="37.0701" ry="18"/>
<text text-anchor="middle" x="1299" y="-14.3" font-family="Times,serif" font-size="14.00">Trigger</text>
</g>
<!-- Article&#45;&gt;Trigger -->
<g id="edge7" class="edge"><title>Article&#45;&gt;Trigger</title>
<path fill="none" stroke="#d7ab54" d="M892.477,-171.325C911.405,-167.992 934.291,-164.326 955,-162 1021.15,-154.57 1191.21,-166.086 1254,-144 1278.66,-135.326 1289.99,-133.222 1302,-110 1312.23,-90.2155 1310.29,-64.6413 1306.48,-45.6447"/>
<ellipse fill="none" stroke="#d7ab54" cx="888.291" cy="-172.074" rx="4.00001" ry="4.00001"/>
<polygon fill="#d7ab54" stroke="#d7ab54" points="1306.47,-45.5937 1308.62,-34.8411 1305.35,-40.72 1304.23,-35.8463 1304.23,-35.8463 1304.23,-35.8463 1305.35,-40.72 1299.85,-36.8515 1306.47,-45.5937 1306.47,-45.5937"/>
</g>
<!-- Categorization -->
<g id="node26" class="node"><title>Categorization</title>
<ellipse fill="none" stroke="black" cx="376" cy="-18" rx="62.0922" ry="18"/>
<text text-anchor="middle" x="376" y="-14.3" font-family="Times,serif" font-size="14.00">Categorization</text>
</g>
<!-- Article&#45;&gt;Categorization -->
<g id="edge12" class="edge"><title>Article&#45;&gt;Categorization</title>
<path fill="none" stroke="#de088c" d="M811.554,-171.595C762.632,-162.566 685.161,-148.011 672,-144 576.664,-114.946 470.226,-65.5617 414.617,-38.3759"/>
<ellipse fill="none" stroke="#de088c" cx="815.509" cy="-172.324" rx="4.00001" ry="4.00001"/>
<polygon fill="#de088c" stroke="#de088c" points="414.463,-38.3002 407.474,-29.8503 409.976,-36.0945 405.488,-33.8888 405.488,-33.8888 405.488,-33.8888 409.976,-36.0945 403.503,-37.9273 414.463,-38.3002 414.463,-38.3002"/>
</g>
<!-- Comment -->
<g id="node27" class="node"><title>Comment</title>
<ellipse fill="none" stroke="black" cx="1140" cy="-92" rx="46.2191" ry="18"/>
<text text-anchor="middle" x="1140" y="-88.3" font-family="Times,serif" font-size="14.00">Comment</text>
</g>
<!-- Article&#45;&gt;Comment -->
<g id="edge14" class="edge"><title>Article&#45;&gt;Comment</title>
<path fill="none" stroke="#380582" d="M887.368,-165.829C903.084,-159.665 921.682,-151.94 938,-144 950.888,-137.729 952.462,-132.707 966,-128 1016.52,-110.432 1032.86,-121.931 1085,-110 1088.67,-109.159 1092.46,-108.197 1096.25,-107.168"/>
<ellipse fill="none" stroke="#380582" cx="883.636" cy="-167.276" rx="4.00001" ry="4.00001"/>
<polygon fill="#380582" stroke="#380582" points="1096.57,-107.075 1107.42,-108.649 1101.38,-105.699 1106.18,-104.323 1106.18,-104.323 1106.18,-104.323 1101.38,-105.699 1104.94,-99.9965 1096.57,-107.075 1096.57,-107.075"/>
</g>
<!-- Article&#45;&gt;Comment -->
<g id="edge15" class="edge"><title>Article&#45;&gt;Comment</title>
<path fill="none" stroke="#dba3d6" d="M891.341,-169.715C913.085,-163.822 940.225,-155.188 963,-144 974.177,-138.509 974.501,-132.778 986,-128 1027.3,-110.839 1041.56,-120.622 1085,-110 1088.61,-109.117 1092.33,-108.132 1096.06,-107.093"/>
<ellipse fill="none" stroke="#dba3d6" cx="887.46" cy="-170.74" rx="4.00001" ry="4.00001"/>
<polygon fill="#dba3d6" stroke="#dba3d6" points="1096.25,-107.038 1107.1,-108.572 1101.05,-105.644 1105.85,-104.25 1105.85,-104.25 1105.85,-104.25 1101.05,-105.644 1104.6,-99.9287 1096.25,-107.038 1096.25,-107.038"/>
<text text-anchor="middle" x="1044.5" y="-132.3" font-family="Times,serif" font-size="14.00">published_comments</text>
</g>
<!-- User -->
<g id="node28" class="node"><title>User</title>
<ellipse fill="none" stroke="black" cx="710" cy="-268" rx="26.949" ry="18"/>
<text text-anchor="middle" x="710" y="-264.3" font-family="Times,serif" font-size="14.00">User</text>
</g>
<!-- Article&#45;&gt;User -->
<g id="edge4" class="edge"><title>Article&#45;&gt;User</title>
<path fill="none" stroke="#e50691" d="M810.785,-191.498C793.295,-197.105 773.243,-205.134 757,-216 746.009,-223.353 735.798,-233.783 727.72,-243.298"/>
<polygon fill="#e50691" stroke="#e50691" points="811.17,-191.381 822.047,-192.779 815.954,-189.927 820.738,-188.473 820.738,-188.473 820.738,-188.473 815.954,-189.927 819.43,-184.168 811.17,-191.381 811.17,-191.381"/>
<polygon fill="#e50691" stroke="#e50691" points="727.508,-243.559 717.712,-248.486 724.357,-247.441 721.206,-251.323 721.206,-251.323 721.206,-251.323 724.357,-247.441 724.699,-254.159 727.508,-243.559 727.508,-243.559"/>
<text text-anchor="middle" x="790.5" y="-220.3" font-family="Times,serif" font-size="14.00">notify_users</text>
</g>
<!-- Feedback -->
<g id="node29" class="node"><title>Feedback</title>
<ellipse fill="none" stroke="black" cx="1249" cy="-92" rx="44.2946" ry="18"/>
<text text-anchor="middle" x="1249" y="-88.3" font-family="Times,serif" font-size="14.00">Feedback</text>
</g>
<!-- Article&#45;&gt;Feedback -->
<g id="edge10" class="edge"><title>Article&#45;&gt;Feedback</title>
<path fill="none" stroke="#a6f356" d="M894.912,-175.72C993.556,-168.095 1228.53,-149.414 1235,-144 1241.98,-138.154 1245.66,-129.182 1247.54,-120.384"/>
<ellipse fill="none" stroke="#a6f356" cx="890.631" cy="-176.05" rx="4" ry="4"/>
<polygon fill="#a6f356" stroke="#a6f356" points="1247.56,-120.228 1253.46,-110.987 1248.29,-115.281 1249.01,-110.333 1249.01,-110.333 1249.01,-110.333 1248.29,-115.281 1244.56,-109.68 1247.56,-120.228 1247.56,-120.228"/>
</g>
<!-- Article&#45;&gt;Feedback -->
<g id="edge17" class="edge"><title>Article&#45;&gt;Feedback</title>
<path fill="none" stroke="#54d00f" d="M894.766,-175.911C956.364,-170.979 1066.65,-160.197 1103,-144 1113.08,-139.506 1112.16,-133.008 1122,-128 1151.78,-112.842 1162.82,-119.022 1195,-110 1198.57,-108.999 1202.26,-107.924 1205.96,-106.819"/>
<ellipse fill="none" stroke="#54d00f" cx="890.762" cy="-176.227" rx="4" ry="4"/>
<polygon fill="#54d00f" stroke="#54d00f" points="1206.12,-106.769 1217,-108.155 1210.9,-105.31 1215.68,-103.851 1215.68,-103.851 1215.68,-103.851 1210.9,-105.31 1214.37,-99.5467 1206.12,-106.769 1206.12,-106.769"/>
<text text-anchor="middle" x="1176.5" y="-132.3" font-family="Times,serif" font-size="14.00">published_feedback</text>
</g>
<!-- Notification -->
<g id="node30" class="node"><title>Notification</title>
<ellipse fill="none" stroke="black" cx="738" cy="-18" rx="52.9443" ry="18"/>
<text text-anchor="middle" x="738" y="-14.3" font-family="Times,serif" font-size="14.00">Notification</text>
</g>
<!-- Article&#45;&gt;Notification -->
<g id="edge3" class="edge"><title>Article&#45;&gt;Notification</title>
<path fill="none" stroke="#afb815" d="M847.277,-154C845.115,-145.474 842.098,-136.064 838,-128 820.411,-93.3897 788.723,-61.6451 765.721,-41.4512"/>
<ellipse fill="none" stroke="#afb815" cx="848.19" cy="-157.934" rx="4.00001" ry="4.00001"/>
<polygon fill="#afb815" stroke="#afb815" points="765.57,-41.3212 760.918,-31.3911 761.778,-38.0628 757.985,-34.8043 757.985,-34.8043 757.985,-34.8043 761.778,-38.0628 755.053,-38.2175 765.57,-41.3212 765.57,-41.3212"/>
</g>
<!-- Resource -->
<g id="node31" class="node"><title>Resource</title>
<ellipse fill="none" stroke="black" cx="960" cy="-92" rx="43.319" ry="18"/>
<text text-anchor="middle" x="960" y="-88.3" font-family="Times,serif" font-size="14.00">Resource</text>
</g>
<!-- Article&#45;&gt;Resource -->
<g id="edge11" class="edge"><title>Article&#45;&gt;Resource</title>
<path fill="none" stroke="#cafbe4" d="M876.527,-159.447C888.44,-149.952 902.964,-138.379 916,-128 921.438,-123.67 927.256,-119.041 932.822,-114.613"/>
<ellipse fill="none" stroke="#cafbe4" cx="873.332" cy="-161.994" rx="4.00002" ry="4.00002"/>
<polygon fill="#cafbe4" stroke="#cafbe4" points="932.895,-114.555 943.522,-111.851 936.808,-111.442 940.721,-108.33 940.721,-108.33 940.721,-108.33 936.808,-111.442 937.92,-104.808 932.895,-114.555 932.895,-114.555"/>
</g>
<!-- Article&#45;&gt;Redirection -->
<g id="edge5" class="edge"><title>Article&#45;&gt;Redirection</title>
<path fill="none" stroke="#0fd757" d="M811.411,-171.541C767.689,-163.273 702.999,-150.28 693,-144 659.494,-122.958 669.437,-98.0243 638,-74 613.828,-55.5276 582.53,-42.0373 556.7,-33.041"/>
<ellipse fill="none" stroke="#0fd757" cx="815.382" cy="-172.288" rx="4.00001" ry="4.00001"/>
<polygon fill="#0fd757" stroke="#0fd757" points="556.574,-32.9985 548.529,-25.5467 551.834,-31.4053 547.095,-29.8121 547.095,-29.8121 547.095,-29.8121 551.834,-31.4053 545.661,-34.0776 556.574,-32.9985 556.574,-32.9985"/>
</g>
<!-- EmailNotifier -->
<g id="node8" class="node"><title>EmailNotifier</title>
<polygon fill="none" stroke="black" points="1258,-557 1166,-557 1166,-521 1258,-521 1258,-557"/>
<text text-anchor="middle" x="1212" y="-535.3" font-family="Times,serif" font-size="14.00">EmailNotifier</text>
</g>
<!-- Content&#45;&gt;Trigger -->
<g id="edge22" class="edge"><title>Content&#45;&gt;Trigger</title>
<path fill="none" stroke="#cd6978" d="M664.984,-349.837C798.591,-333.682 1189.63,-280.222 1284,-198 1333.26,-155.083 1320.19,-121.307 1322,-56 1322.02,-55.1115 1322.25,-54.8516 1322,-54 1320.97,-50.5519 1319.48,-47.1286 1317.74,-43.8495"/>
<ellipse fill="none" stroke="#cd6978" cx="660.908" cy="-350.326" rx="4.00001" ry="4.00001"/>
<polygon fill="#cd6978" stroke="#cd6978" points="1317.6,-43.6188 1316.22,-32.7402 1314.99,-39.3539 1312.38,-35.0891 1312.38,-35.0891 1312.38,-35.0891 1314.99,-39.3539 1308.54,-37.438 1317.6,-43.6188 1317.6,-43.6188"/>
</g>
<!-- Content&#45;&gt;User -->
<g id="edge20" class="edge"><title>Content&#45;&gt;User</title>
<path fill="none" stroke="#016e69" d="M614.984,-327.846C614.842,-319.565 616.235,-310.849 621,-304 632.896,-286.902 654.506,-278.156 673.452,-273.683"/>
<polygon fill="#016e69" stroke="#016e69" points="614.994,-327.965 611.364,-338.313 615.421,-332.947 615.847,-337.929 615.847,-337.929 615.847,-337.929 615.421,-332.947 620.331,-337.545 614.994,-327.965 614.994,-327.965"/>
<polygon fill="#016e69" stroke="#016e69" points="673.541,-273.665 684.24,-276.07 678.439,-272.663 683.338,-271.662 683.338,-271.662 683.338,-271.662 678.439,-272.663 682.436,-267.253 673.541,-273.665 673.541,-273.665"/>
<text text-anchor="middle" x="654.5" y="-308.3" font-family="Times,serif" font-size="14.00">notify_users</text>
</g>
<!-- Content&#45;&gt;Notification -->
<g id="edge19" class="edge"><title>Content&#45;&gt;Notification</title>
<path fill="none" stroke="#25ad5b" d="M613.228,-330.135C611.735,-321.837 610.888,-312.532 612,-304 625.67,-199.131 625.388,-168.432 673,-74 679.855,-60.4044 691.716,-48.8456 703.445,-39.8854"/>
<ellipse fill="none" stroke="#25ad5b" cx="614.065" cy="-334.117" rx="4.00001" ry="4.00001"/>
<polygon fill="#25ad5b" stroke="#25ad5b" points="703.763,-39.6572 714.512,-37.4849 707.826,-36.7428 711.889,-33.8284 711.889,-33.8284 711.889,-33.8284 707.826,-36.7428 709.266,-30.1718 703.763,-39.6572 703.763,-39.6572"/>
</g>
<!-- Content&#45;&gt;Redirection -->
<g id="edge21" class="edge"><title>Content&#45;&gt;Redirection</title>
<path fill="none" stroke="#daf301" d="M585.469,-339.726C519.13,-308.153 375.846,-228.592 324,-110 317.591,-95.3397 314.443,-86.8319 324,-74 326.103,-71.176 405.602,-48.1158 459.403,-32.7652"/>
<ellipse fill="none" stroke="#daf301" cx="589.166" cy="-341.462" rx="4.00002" ry="4.00002"/>
<polygon fill="#daf301" stroke="#daf301" points="459.509,-32.7353 470.359,-34.323 464.317,-31.3653 469.126,-29.9952 469.126,-29.9952 469.126,-29.9952 464.317,-31.3653 467.893,-25.6675 459.509,-32.7353 459.509,-32.7353"/>
</g>
<!-- Sidebar -->
<g id="node10" class="node"><title>Sidebar</title>
<ellipse fill="none" stroke="black" cx="1380" cy="-539" rx="37.5442" ry="18"/>
<text text-anchor="middle" x="1380" y="-535.3" font-family="Times,serif" font-size="14.00">Sidebar</text>
</g>
<!-- Category&#45;&gt;Category -->
<g id="edge23" class="edge"><title>Category&#45;&gt;Category</title>
<path fill="none" stroke="#99c2af" d="M423.593,-98.1783C430.973,-97.2499 436,-95.1904 436,-92 436,-89.1419 431.966,-87.1914 425.82,-86.1486"/>
<ellipse fill="none" stroke="#99c2af" cx="419.518" cy="-98.4569" rx="4" ry="4"/>
<polygon fill="#99c2af" stroke="#99c2af" points="425.491,-86.1206 415.91,-80.7865 420.509,-85.6954 415.527,-85.2702 415.527,-85.2702 415.527,-85.2702 420.509,-85.6954 415.144,-89.7539 425.491,-86.1206 425.491,-86.1206"/>
<text text-anchor="middle" x="458.5" y="-88.3" font-family="Times,serif" font-size="14.00">children</text>
</g>
<!-- Category&#45;&gt;Categorization -->
<g id="edge24" class="edge"><title>Category&#45;&gt;Categorization</title>
<path fill="none" stroke="#74bc5c" d="M376,-65.7923C376,-59.5805 376,-52.8963 376,-46.5786"/>
<ellipse fill="none" stroke="#74bc5c" cx="376" cy="-69.937" rx="4" ry="4"/>
<polygon fill="#74bc5c" stroke="#74bc5c" points="376,-46.4407 380.5,-36.4406 376,-41.4407 376,-36.4407 376,-36.4407 376,-36.4407 376,-41.4407 371.5,-36.4407 376,-46.4407 376,-46.4407"/>
</g>
<!-- Profile -->
<g id="node13" class="node"><title>Profile</title>
<ellipse fill="none" stroke="black" cx="1499" cy="-444" rx="34.1708" ry="18"/>
<text text-anchor="middle" x="1499" y="-440.3" font-family="Times,serif" font-size="14.00">Profile</text>
</g>
<!-- WebNotifier -->
<g id="node14" class="node"><title>WebNotifier</title>
<polygon fill="none" stroke="black" points="1634,-557 1548,-557 1548,-521 1634,-521 1634,-557"/>
<text text-anchor="middle" x="1591" y="-535.3" font-family="Times,serif" font-size="14.00">WebNotifier</text>
</g>
<!-- TextFilter -->
<g id="node15" class="node"><title>TextFilter</title>
<ellipse fill="none" stroke="black" cx="1698" cy="-539" rx="46.2191" ry="18"/>
<text text-anchor="middle" x="1698" y="-535.3" font-family="Times,serif" font-size="14.00">TextFilter</text>
</g>
<!-- Trackback&#45;&gt;Redirect -->
<g id="edge28" class="edge"><title>Trackback&#45;&gt;Redirect</title>
<path fill="none" stroke="#f43d32" d="M702.79,-112.47C696.116,-117.055 689.509,-122.29 684,-128 610.702,-203.975 594.368,-234.616 573,-338 569.761,-353.669 568.287,-358.71 573,-374 578.099,-390.543 588.671,-406.669 598.499,-419.167"/>
<polygon fill="#f43d32" stroke="#f43d32" points="702.806,-112.46 713.646,-110.801 707.003,-109.742 711.2,-107.024 711.2,-107.024 711.2,-107.024 707.003,-109.742 708.754,-103.247 702.806,-112.46 702.806,-112.46"/>
<polygon fill="#f43d32" stroke="#f43d32" points="598.754,-419.477 601.632,-430.058 601.93,-423.338 605.107,-427.199 605.107,-427.199 605.107,-427.199 601.93,-423.338 608.582,-424.34 598.754,-419.477 598.754,-419.477"/>
</g>
<!-- Trackback&#45;&gt;Trigger -->
<g id="edge29" class="edge"><title>Trackback&#45;&gt;Trigger</title>
<path fill="none" stroke="#d5d06d" d="M788.119,-81.6696C803.164,-79.0164 819.728,-76.2416 835,-74 987.588,-51.603 1169.45,-32.1381 1252.94,-23.6029"/>
<ellipse fill="none" stroke="#d5d06d" cx="783.872" cy="-82.4257" rx="4.00001" ry="4.00001"/>
<polygon fill="#d5d06d" stroke="#d5d06d" points="1253.16,-23.5811 1263.56,-27.0452 1258.13,-23.0747 1263.11,-22.5684 1263.11,-22.5684 1263.11,-22.5684 1258.13,-23.0747 1262.65,-18.0915 1253.16,-23.5811 1253.16,-23.5811"/>
</g>
<!-- Trackback&#45;&gt;User -->
<g id="edge26" class="edge"><title>Trackback&#45;&gt;User</title>
<path fill="none" stroke="#619a9a" d="M703.893,-113.707C699.495,-117.874 695.619,-122.646 693,-128 675.228,-164.337 687.738,-212.156 698.675,-241.183"/>
<polygon fill="#619a9a" stroke="#619a9a" points="703.959,-113.652 714.529,-110.732 707.808,-110.46 711.657,-107.268 711.657,-107.268 711.657,-107.268 707.808,-110.46 708.784,-103.805 703.959,-113.652 703.959,-113.652"/>
<polygon fill="#619a9a" stroke="#619a9a" points="698.731,-241.324 698.244,-252.279 700.578,-245.971 702.426,-250.617 702.426,-250.617 702.426,-250.617 700.578,-245.971 706.607,-248.954 698.731,-241.324 698.731,-241.324"/>
<text text-anchor="middle" x="720.5" y="-176.3" font-family="Times,serif" font-size="14.00">notify_users</text>
</g>
<!-- Trackback&#45;&gt;Notification -->
<g id="edge25" class="edge"><title>Trackback&#45;&gt;Notification</title>
<path fill="none" stroke="#f0ed0b" d="M738,-65.7923C738,-59.5805 738,-52.8963 738,-46.5786"/>
<ellipse fill="none" stroke="#f0ed0b" cx="738" cy="-69.937" rx="4" ry="4"/>
<polygon fill="#f0ed0b" stroke="#f0ed0b" points="738,-46.4407 742.5,-36.4406 738,-41.4407 738,-36.4407 738,-36.4407 738,-36.4407 738,-41.4407 733.5,-36.4407 738,-46.4407 738,-46.4407"/>
</g>
<!-- Trackback&#45;&gt;Redirection -->
<g id="edge27" class="edge"><title>Trackback&#45;&gt;Redirection</title>
<path fill="none" stroke="#fd58c2" d="M694.513,-77.3868C654.573,-64.8836 595.549,-46.4066 554.641,-33.6006"/>
<ellipse fill="none" stroke="#fd58c2" cx="698.498" cy="-78.634" rx="4.00001" ry="4.00001"/>
<polygon fill="#fd58c2" stroke="#fd58c2" points="554.455,-33.5426 546.256,-26.2606 549.684,-32.0489 544.912,-30.5551 544.912,-30.5551 544.912,-30.5551 549.684,-32.0489 543.568,-34.8496 554.455,-33.5426 554.455,-33.5426"/>
</g>
<!-- Article::States -->
<g id="node17" class="node"><title>Article::States</title>
<polygon fill="none" stroke="black" stroke-dasharray="1,5" points="1856,-557 1762,-557 1762,-521 1856,-521 1856,-557"/>
<text text-anchor="middle" x="1809" y="-535.3" font-family="Times,serif" font-size="14.00">Article::States</text>
</g>
<!-- Theme -->
<g id="node18" class="node"><title>Theme</title>
<polygon fill="none" stroke="black" points="1929.25,-557 1874.75,-557 1874.75,-521 1929.25,-521 1929.25,-557"/>
<text text-anchor="middle" x="1902" y="-535.3" font-family="Times,serif" font-size="14.00">Theme</text>
</g>
<!-- Feedback::States -->
<g id="node19" class="node"><title>Feedback::States</title>
<polygon fill="none" stroke="black" stroke-dasharray="1,5" points="2056,-557 1948,-557 1948,-521 2056,-521 2056,-557"/>
<text text-anchor="middle" x="2002" y="-535.3" font-family="Times,serif" font-size="14.00">Feedback::States</text>
</g>
<!-- Blog -->
<g id="node21" class="node"><title>Blog</title>
<ellipse fill="none" stroke="black" cx="2102" cy="-539" rx="27.4223" ry="18"/>
<text text-anchor="middle" x="2102" y="-535.3" font-family="Times,serif" font-size="14.00">Blog</text>
</g>
<!-- Right -->
<g id="node22" class="node"><title>Right</title>
<ellipse fill="none" stroke="black" cx="1499" cy="-539" rx="30.3206" ry="18"/>
<text text-anchor="middle" x="1499" y="-535.3" font-family="Times,serif" font-size="14.00">Right</text>
</g>
<!-- Right&#45;&gt;Profile -->
<g id="edge30" class="edge"><title>Right&#45;&gt;Profile</title>
<path fill="none" stroke="#832a48" d="M1499,-510.77C1499,-498.646 1499,-484.399 1499,-472.271"/>
<polygon fill="#832a48" stroke="#832a48" points="1499,-510.942 1494.5,-520.942 1499,-515.942 1499,-520.942 1499,-520.942 1499,-520.942 1499,-515.942 1503.5,-520.942 1499,-510.942 1499,-510.942"/>
<polygon fill="#832a48" stroke="#832a48" points="1499,-472.264 1503.5,-462.264 1499,-467.264 1499,-462.264 1499,-462.264 1499,-462.264 1499,-467.264 1494.5,-462.264 1499,-472.264 1499,-472.264"/>
</g>
<!-- Page -->
<g id="node23" class="node"><title>Page</title>
<ellipse fill="none" stroke="black" cx="486" cy="-539" rx="27.4223" ry="18"/>
<text text-anchor="middle" x="486" y="-535.3" font-family="Times,serif" font-size="14.00">Page</text>
</g>
<!-- Page&#45;&gt;Redirect -->
<g id="edge34" class="edge"><title>Page&#45;&gt;Redirect</title>
<path fill="none" stroke="#db9f45" d="M512.798,-519.401C535.368,-503.737 567.596,-481.37 590.815,-465.255"/>
<polygon fill="#db9f45" stroke="#db9f45" points="512.566,-519.562 501.785,-521.567 508.459,-522.413 504.351,-525.264 504.351,-525.264 504.351,-525.264 508.459,-522.413 506.917,-528.961 512.566,-519.562 512.566,-519.562"/>
<polygon fill="#db9f45" stroke="#db9f45" points="591.018,-465.114 601.799,-463.109 595.126,-462.263 599.234,-459.412 599.234,-459.412 599.234,-459.412 595.126,-462.263 596.668,-455.716 591.018,-465.114 591.018,-465.114"/>
</g>
<!-- Page&#45;&gt;Trigger -->
<g id="edge35" class="edge"><title>Page&#45;&gt;Trigger</title>
<path fill="none" stroke="#587e64" d="M511.222,-521.068C524.305,-513.196 540.887,-504.58 557,-500 651.236,-473.216 1437,-542.969 1437,-445 1437,-445 1437,-445 1437,-91 1437,-48.6496 1385.28,-31.1683 1345.17,-23.9788"/>
<ellipse fill="none" stroke="#587e64" cx="507.738" cy="-523.226" rx="4.00002" ry="4.00002"/>
<polygon fill="#587e64" stroke="#587e64" points="1345.13,-23.9723 1335.98,-17.9224 1340.19,-23.1681 1335.26,-22.3638 1335.26,-22.3638 1335.26,-22.3638 1340.19,-23.1681 1334.53,-26.8052 1345.13,-23.9723 1345.13,-23.9723"/>
</g>
<!-- Page&#45;&gt;User -->
<g id="edge32" class="edge"><title>Page&#45;&gt;User</title>
<path fill="none" stroke="#16265a" d="M493.316,-511.52C505.32,-471.261 532.033,-393.484 573,-338 597.622,-304.653 642.951,-286.348 674.703,-277.122"/>
<polygon fill="#16265a" stroke="#16265a" points="493.31,-511.54 486.195,-519.884 491.913,-516.341 490.516,-521.141 490.516,-521.141 490.516,-521.141 491.913,-516.341 494.837,-522.399 493.31,-511.54 493.31,-511.54"/>
<polygon fill="#16265a" stroke="#16265a" points="674.847,-277.083 685.681,-278.778 679.669,-275.761 684.492,-274.438 684.492,-274.438 684.492,-274.438 679.669,-275.761 683.302,-270.099 674.847,-277.083 674.847,-277.083"/>
<text text-anchor="middle" x="573.5" y="-396.3" font-family="Times,serif" font-size="14.00">notify_users</text>
</g>
<!-- Page&#45;&gt;Notification -->
<g id="edge31" class="edge"><title>Page&#45;&gt;Notification</title>
<path fill="none" stroke="#f774e9" d="M470.818,-515.067C460.233,-496.859 448,-470.334 448,-445 448,-445 448,-445 448,-267 448,-140.637 609.001,-64.8968 691.079,-34.4949"/>
<ellipse fill="none" stroke="#f774e9" cx="473.142" cy="-518.911" rx="4.00002" ry="4.00002"/>
<polygon fill="#f774e9" stroke="#f774e9" points="691.281,-34.4218 702.216,-35.242 695.981,-32.7168 700.681,-31.0117 700.681,-31.0117 700.681,-31.0117 695.981,-32.7168 699.147,-26.7814 691.281,-34.4218 691.281,-34.4218"/>
</g>
<!-- Page&#45;&gt;Redirection -->
<g id="edge33" class="edge"><title>Page&#45;&gt;Redirection</title>
<path fill="none" stroke="#c181df" d="M468.849,-516.296C463.113,-510.252 456.304,-504.2 449,-500 361.628,-449.759 229,-545.787 229,-445 229,-445 229,-445 229,-91 229,-50.6107 444.736,-36.4848 447,-36 451.35,-35.0684 455.85,-34.0065 460.342,-32.8788"/>
<ellipse fill="none" stroke="#c181df" cx="471.534" cy="-519.29" rx="4.00002" ry="4.00002"/>
<polygon fill="#c181df" stroke="#c181df" points="460.43,-32.856 471.242,-34.684 465.268,-31.5929 470.106,-30.3299 470.106,-30.3299 470.106,-30.3299 465.268,-31.5929 468.969,-25.9758 460.43,-32.856 460.43,-32.856"/>
</g>
<!-- BlogSweeper -->
<g id="node25" class="node"><title>BlogSweeper</title>
<polygon fill="none" stroke="black" points="2236.25,-557 2147.75,-557 2147.75,-521 2236.25,-521 2236.25,-557"/>
<text text-anchor="middle" x="2192" y="-535.3" font-family="Times,serif" font-size="14.00">BlogSweeper</text>
</g>
<!-- Comment&#45;&gt;Redirect -->
<g id="edge39" class="edge"><title>Comment&#45;&gt;Redirect</title>
<path fill="none" stroke="#92966c" d="M1184.76,-106.772C1213.85,-115.8 1246.93,-126.247 1250,-128 1299.45,-156.248 1336,-166.047 1336,-223 1336,-357 1336,-357 1336,-357 1336,-424.15 833.139,-439.15 670.258,-442.247"/>
<polygon fill="#92966c" stroke="#92966c" points="1184.65,-106.738 1176.43,-99.4807 1179.87,-105.259 1175.1,-103.779 1175.1,-103.779 1175.1,-103.779 1179.87,-105.259 1173.76,-108.078 1184.65,-106.738 1184.65,-106.738"/>
<polygon fill="#92966c" stroke="#92966c" points="670.028,-442.252 659.947,-437.935 665.029,-442.343 660.029,-442.435 660.029,-442.435 660.029,-442.435 665.029,-442.343 660.112,-446.934 670.028,-442.252 670.028,-442.252"/>
</g>
<!-- Comment&#45;&gt;Trigger -->
<g id="edge40" class="edge"><title>Comment&#45;&gt;Trigger</title>
<path fill="none" stroke="#5417e2" d="M1176.77,-74.3501C1202.87,-62.5326 1237.7,-46.757 1263.51,-35.0715"/>
<ellipse fill="none" stroke="#5417e2" cx="1172.81" cy="-76.144" rx="4.00002" ry="4.00002"/>
<polygon fill="#5417e2" stroke="#5417e2" points="1263.81,-34.9351 1274.78,-34.9093 1268.36,-32.8725 1272.92,-30.81 1272.92,-30.81 1272.92,-30.81 1268.36,-32.8725 1271.06,-26.7107 1263.81,-34.9351 1263.81,-34.9351"/>
</g>
<!-- Comment&#45;&gt;User -->
<g id="edge37" class="edge"><title>Comment&#45;&gt;User</title>
<path fill="none" stroke="#945d6d" d="M1184.75,-106.929C1207.8,-114.551 1231.77,-123.364 1235,-128 1239.07,-133.833 1239.64,-138.614 1235,-144 1217.25,-164.588 1140.64,-156.573 1114,-162 975.537,-190.209 813.619,-236.362 744.308,-256.758"/>
<polygon fill="#945d6d" stroke="#945d6d" points="1184.5,-106.847 1176.39,-99.4716 1179.75,-105.299 1174.99,-103.75 1174.99,-103.75 1174.99,-103.75 1179.75,-105.299 1173.6,-108.029 1184.5,-106.847 1184.5,-106.847"/>
<polygon fill="#945d6d" stroke="#945d6d" points="743.972,-256.857 733.107,-255.374 739.176,-258.273 734.381,-259.69 734.381,-259.69 734.381,-259.69 739.176,-258.273 735.656,-264.005 743.972,-256.857 743.972,-256.857"/>
<text text-anchor="middle" x="1147.5" y="-176.3" font-family="Times,serif" font-size="14.00">notify_users</text>
</g>
<!-- Comment&#45;&gt;Notification -->
<g id="edge36" class="edge"><title>Comment&#45;&gt;Notification</title>
<path fill="none" stroke="#195dc0" d="M1098.24,-77.4147C1093.79,-76.1716 1089.32,-75.0045 1085,-74 985.403,-50.8391 867.442,-34.4262 797.88,-25.8557"/>
<ellipse fill="none" stroke="#195dc0" cx="1102.33" cy="-78.6013" rx="4.00001" ry="4.00001"/>
<polygon fill="#195dc0" stroke="#195dc0" points="797.486,-25.8077 788.104,-20.131 792.522,-25.2028 787.559,-24.5979 787.559,-24.5979 787.559,-24.5979 792.522,-25.2028 787.015,-29.0649 797.486,-25.8077 797.486,-25.8077"/>
</g>
<!-- Comment&#45;&gt;Redirection -->
<g id="edge38" class="edge"><title>Comment&#45;&gt;Redirection</title>
<path fill="none" stroke="#64668a" d="M1098.83,-77.2689C1094.2,-76.0254 1089.52,-74.8987 1085,-74 905.942,-38.4092 857.707,-53.6344 676,-36 639.798,-32.4866 599.225,-28.3856 567.021,-25.0919"/>
<ellipse fill="none" stroke="#64668a" cx="1102.69" cy="-78.3626" rx="4.00001" ry="4.00001"/>
<polygon fill="#64668a" stroke="#64668a" points="566.824,-25.0717 557.335,-19.576 561.85,-24.5622 556.876,-24.0526 556.876,-24.0526 556.876,-24.0526 561.85,-24.5622 556.417,-28.5292 566.824,-25.0717 566.824,-25.0717"/>
</g>
<!-- User&#45;&gt;Article -->
<g id="edge43" class="edge"><title>User&#45;&gt;Article</title>
<path fill="none" stroke="#5492b0" d="M717.279,-242.425C721.175,-233.001 726.888,-222.872 735,-216 755.312,-198.792 783.846,-190.044 807.649,-185.598"/>
<ellipse fill="none" stroke="#5492b0" cx="715.818" cy="-246.341" rx="4.00001" ry="4.00001"/>
<polygon fill="#5492b0" stroke="#5492b0" points="807.661,-185.596 818.267,-188.381 812.592,-184.769 817.523,-183.943 817.523,-183.943 817.523,-183.943 812.592,-184.769 816.78,-179.505 807.661,-185.596 807.661,-185.596"/>
</g>
<!-- User&#45;&gt;Content -->
<g id="edge42" class="edge"><title>User&#45;&gt;Content</title>
<path fill="none" stroke="#6f1deb" d="M702.399,-295.853C699.023,-304.314 694.34,-313.213 688,-320 680.089,-328.469 669.668,-335.231 659.368,-340.466"/>
<polygon fill="#6f1deb" stroke="#6f1deb" points="702.452,-295.704 710.026,-287.774 704.117,-290.989 705.783,-286.275 705.783,-286.275 705.783,-286.275 704.117,-290.989 701.54,-284.776 702.452,-295.704 702.452,-295.704"/>
<polygon fill="#6f1deb" stroke="#6f1deb" points="659.073,-340.605 648.108,-340.776 654.546,-342.728 650.019,-344.85 650.019,-344.85 650.019,-344.85 654.546,-342.728 651.929,-348.925 659.073,-340.605 659.073,-340.605"/>
<text text-anchor="middle" x="741.5" y="-308.3" font-family="Times,serif" font-size="14.00">notify_contents</text>
</g>
<!-- User&#45;&gt;Notification -->
<g id="edge41" class="edge"><title>User&#45;&gt;Notification</title>
<path fill="none" stroke="#a0dc0f" d="M693.463,-244.719C690.996,-240.641 688.711,-236.308 687,-232 668.389,-185.135 677.287,-82.7432 681,-74 686.483,-61.0896 696.646,-49.7358 706.889,-40.7477"/>
<ellipse fill="none" stroke="#a0dc0f" cx="695.836" cy="-248.37" rx="4.00002" ry="4.00002"/>
<polygon fill="#a0dc0f" stroke="#a0dc0f" points="706.94,-40.7051 717.521,-37.8232 710.801,-37.5271 714.661,-34.3491 714.661,-34.3491 714.661,-34.3491 710.801,-37.5271 711.8,-30.875 706.94,-40.7051 706.94,-40.7051"/>
</g>
<!-- Feedback&#45;&gt;Redirect -->
<g id="edge47" class="edge"><title>Feedback&#45;&gt;Redirect</title>
<path fill="none" stroke="#2fa9c9" d="M1295.94,-104.834C1331.4,-116.92 1374,-139.633 1374,-179 1374,-357 1374,-357 1374,-357 1374,-412.912 1313.64,-396.146 1259,-408 1147.07,-432.282 800.988,-440.153 670.49,-442.298"/>
<polygon fill="#2fa9c9" stroke="#2fa9c9" points="1295.69,-104.754 1287.54,-97.4161 1290.93,-103.228 1286.17,-101.701 1286.17,-101.701 1286.17,-101.701 1290.93,-103.228 1284.79,-105.986 1295.69,-104.754 1295.69,-104.754"/>
<polygon fill="#2fa9c9" stroke="#2fa9c9" points="670.37,-442.3 660.299,-437.96 665.371,-442.38 660.371,-442.46 660.371,-442.46 660.371,-442.46 665.371,-442.38 660.443,-446.959 670.37,-442.3 670.37,-442.3"/>
</g>
<!-- Feedback&#45;&gt;Trigger -->
<g id="edge48" class="edge"><title>Feedback&#45;&gt;Trigger</title>
<path fill="none" stroke="#c463b2" d="M1265.18,-67.7052C1270.4,-60.1841 1276.21,-51.8143 1281.52,-44.1644"/>
<ellipse fill="none" stroke="#c463b2" cx="1262.88" cy="-71.0153" rx="4.00002" ry="4.00002"/>
<polygon fill="#c463b2" stroke="#c463b2" points="1281.76,-43.8224 1291.16,-38.1755 1284.61,-39.7155 1287.47,-35.6087 1287.47,-35.6087 1287.47,-35.6087 1284.61,-39.7155 1283.77,-33.0419 1281.76,-43.8224 1281.76,-43.8224"/>
</g>
<!-- Feedback&#45;&gt;User -->
<g id="edge45" class="edge"><title>Feedback&#45;&gt;User</title>
<path fill="none" stroke="#c719c2" d="M1254.83,-120.406C1255.19,-128.478 1254.15,-137.011 1250,-144 1241.47,-158.366 1230.38,-151.991 1217,-162 1198.88,-175.556 1201.22,-187.845 1181,-198 1104.65,-236.343 844.419,-257.758 747.113,-264.579"/>
<polygon fill="#c719c2" stroke="#c719c2" points="1254.8,-120.166 1258.15,-109.724 1254.24,-115.198 1253.68,-110.23 1253.68,-110.23 1253.68,-110.23 1254.24,-115.198 1249.21,-110.736 1254.8,-120.166 1254.8,-120.166"/>
<polygon fill="#c719c2" stroke="#c719c2" points="746.852,-264.597 736.566,-260.795 741.863,-264.94 736.875,-265.284 736.875,-265.284 736.875,-265.284 741.863,-264.94 737.185,-269.774 746.852,-264.597 746.852,-264.597"/>
<text text-anchor="middle" x="1250.5" y="-176.3" font-family="Times,serif" font-size="14.00">notify_users</text>
</g>
<!-- Feedback&#45;&gt;Notification -->
<g id="edge44" class="edge"><title>Feedback&#45;&gt;Notification</title>
<path fill="none" stroke="#7cf4a8" d="M1208.42,-77.3425C1203.92,-76.0935 1199.38,-74.9452 1195,-74 1055.61,-43.9429 888.512,-29.0657 800.049,-22.8098"/>
<ellipse fill="none" stroke="#7cf4a8" cx="1212.58" cy="-78.5572" rx="4.00001" ry="4.00001"/>
<polygon fill="#7cf4a8" stroke="#7cf4a8" points="799.894,-22.7991 790.229,-17.6176 794.906,-22.453 789.918,-22.1068 789.918,-22.1068 789.918,-22.1068 794.906,-22.453 789.606,-26.596 799.894,-22.7991 799.894,-22.7991"/>
</g>
<!-- Feedback&#45;&gt;Redirection -->
<g id="edge46" class="edge"><title>Feedback&#45;&gt;Redirection</title>
<path fill="none" stroke="#2b287c" d="M1208.97,-77.3626C1204.3,-76.0799 1199.57,-74.9186 1195,-74 968.255,-28.4025 906.541,-54.5267 676,-36 639.612,-33.0758 598.875,-28.9741 566.628,-25.5323"/>
<ellipse fill="none" stroke="#2b287c" cx="1212.9" cy="-78.5012" rx="4.00001" ry="4.00001"/>
<polygon fill="#2b287c" stroke="#2b287c" points="566.416,-25.5096 556.954,-19.9662 561.445,-24.975 556.473,-24.4404 556.473,-24.4404 556.473,-24.4404 561.445,-24.975 555.992,-28.9146 566.416,-25.5096 566.416,-25.5096"/>
</g>
</g>
</svg>
